<mxfile host="Electron" modified="2024-05-09T19:53:29.101Z" agent="Mozilla/5.0 (Windows NT 10.0; Win64; x64) AppleWebKit/537.36 (KHTML, like Gecko) draw.io/24.0.4 Chrome/120.0.6099.109 Electron/28.1.0 Safari/537.36" etag="BsBEjQGKwlXYi37wHW7R" version="24.0.4" type="device">
  <diagram name="Seite-1" id="BmjkJ6wGa5X95sJOrMii">
    <mxGraphModel dx="989" dy="582" grid="1" gridSize="10" guides="1" tooltips="1" connect="1" arrows="1" fold="1" page="1" pageScale="1" pageWidth="827" pageHeight="1169" math="1" shadow="0">
      <root>
        <mxCell id="0" />
        <mxCell id="1" parent="0" />
        <mxCell id="1-SLnetVIRhIFfSuhSnH-8" style="edgeStyle=orthogonalEdgeStyle;rounded=0;orthogonalLoop=1;jettySize=auto;html=1;exitX=1;exitY=0.5;exitDx=0;exitDy=0;entryX=0;entryY=0.5;entryDx=0;entryDy=0;endArrow=none;endFill=0;" edge="1" parent="1" source="1-SLnetVIRhIFfSuhSnH-1" target="1-SLnetVIRhIFfSuhSnH-7">
          <mxGeometry relative="1" as="geometry" />
        </mxCell>
        <mxCell id="1-SLnetVIRhIFfSuhSnH-1" value="Clock-Umschalter 1" style="rounded=0;whiteSpace=wrap;html=1;" vertex="1" parent="1">
          <mxGeometry x="160" y="280" width="120" height="40" as="geometry" />
        </mxCell>
        <mxCell id="1-SLnetVIRhIFfSuhSnH-4" style="edgeStyle=orthogonalEdgeStyle;rounded=0;orthogonalLoop=1;jettySize=auto;html=1;exitX=1;exitY=0.5;exitDx=0;exitDy=0;entryX=0;entryY=0.5;entryDx=0;entryDy=0;" edge="1" parent="1" source="1-SLnetVIRhIFfSuhSnH-3" target="1-SLnetVIRhIFfSuhSnH-1">
          <mxGeometry relative="1" as="geometry" />
        </mxCell>
        <mxCell id="1-SLnetVIRhIFfSuhSnH-3" value="LFXO" style="text;html=1;align=center;verticalAlign=middle;whiteSpace=wrap;rounded=0;fontColor=#00994D;" vertex="1" parent="1">
          <mxGeometry x="40" y="280" width="60" height="40" as="geometry" />
        </mxCell>
        <mxCell id="1-SLnetVIRhIFfSuhSnH-5" value="&lt;div style=&quot;font-size: 7px;&quot;&gt;&lt;font style=&quot;font-size: 7px;&quot;&gt;CMU_DPLLREFCLKCTRL.&lt;/font&gt;&lt;span style=&quot;background-color: initial; font-size: 7px;&quot;&gt;CLKSEL&lt;/span&gt;&lt;/div&gt;" style="text;html=1;align=center;verticalAlign=middle;whiteSpace=wrap;rounded=0;fontSize=7;" vertex="1" parent="1">
          <mxGeometry x="160" y="320" width="120" height="40" as="geometry" />
        </mxCell>
        <mxCell id="1-SLnetVIRhIFfSuhSnH-13" style="edgeStyle=orthogonalEdgeStyle;rounded=0;orthogonalLoop=1;jettySize=auto;html=1;exitX=1;exitY=0.5;exitDx=0;exitDy=0;entryX=0;entryY=0.5;entryDx=0;entryDy=0;endArrow=none;endFill=0;" edge="1" parent="1" source="1-SLnetVIRhIFfSuhSnH-6" target="1-SLnetVIRhIFfSuhSnH-11">
          <mxGeometry relative="1" as="geometry" />
        </mxCell>
        <mxCell id="1-SLnetVIRhIFfSuhSnH-6" value="DPLL-Generator" style="rounded=0;whiteSpace=wrap;html=1;" vertex="1" parent="1">
          <mxGeometry x="440" y="280" width="120" height="40" as="geometry" />
        </mxCell>
        <mxCell id="1-SLnetVIRhIFfSuhSnH-7" value="DPLLREFCLK" style="text;html=1;align=center;verticalAlign=middle;whiteSpace=wrap;rounded=0;fontColor=#FF3333;" vertex="1" parent="1">
          <mxGeometry x="320" y="280" width="80" height="40" as="geometry" />
        </mxCell>
        <mxCell id="1-SLnetVIRhIFfSuhSnH-9" style="edgeStyle=orthogonalEdgeStyle;rounded=0;orthogonalLoop=1;jettySize=auto;html=1;exitX=1;exitY=0.5;exitDx=0;exitDy=0;entryX=0;entryY=0.5;entryDx=0;entryDy=0;" edge="1" parent="1" source="1-SLnetVIRhIFfSuhSnH-7" target="1-SLnetVIRhIFfSuhSnH-6">
          <mxGeometry relative="1" as="geometry" />
        </mxCell>
        <mxCell id="1-SLnetVIRhIFfSuhSnH-23" style="edgeStyle=orthogonalEdgeStyle;rounded=0;orthogonalLoop=1;jettySize=auto;html=1;exitX=1;exitY=0.5;exitDx=0;exitDy=0;entryX=1;entryY=0.5;entryDx=0;entryDy=0;" edge="1" parent="1" source="1-SLnetVIRhIFfSuhSnH-11" target="1-SLnetVIRhIFfSuhSnH-14">
          <mxGeometry relative="1" as="geometry" />
        </mxCell>
        <mxCell id="1-SLnetVIRhIFfSuhSnH-11" value="HFRCODPLL" style="text;html=1;align=center;verticalAlign=middle;whiteSpace=wrap;rounded=0;fontColor=#FF3333;" vertex="1" parent="1">
          <mxGeometry x="600" y="280" width="80" height="40" as="geometry" />
        </mxCell>
        <mxCell id="1-SLnetVIRhIFfSuhSnH-27" style="edgeStyle=orthogonalEdgeStyle;rounded=0;orthogonalLoop=1;jettySize=auto;html=1;exitX=0;exitY=0.5;exitDx=0;exitDy=0;entryX=1;entryY=0.5;entryDx=0;entryDy=0;endArrow=none;endFill=0;" edge="1" parent="1" source="1-SLnetVIRhIFfSuhSnH-14" target="1-SLnetVIRhIFfSuhSnH-24">
          <mxGeometry relative="1" as="geometry" />
        </mxCell>
        <mxCell id="1-SLnetVIRhIFfSuhSnH-14" value="Clock-Umschalter 2" style="rounded=0;whiteSpace=wrap;html=1;" vertex="1" parent="1">
          <mxGeometry x="440" y="400" width="120" height="40" as="geometry" />
        </mxCell>
        <mxCell id="1-SLnetVIRhIFfSuhSnH-16" value="&lt;div style=&quot;&quot;&gt;CMU_EM01GRPBCLKCTRL.CLKSEL&lt;br&gt;&lt;/div&gt;" style="text;html=1;align=center;verticalAlign=middle;whiteSpace=wrap;rounded=0;fontSize=7;" vertex="1" parent="1">
          <mxGeometry x="440" y="440" width="120" height="40" as="geometry" />
        </mxCell>
        <mxCell id="1-SLnetVIRhIFfSuhSnH-17" value="&lt;div style=&quot;font-size: 7px;&quot;&gt;DPLL_XXXXX&lt;/div&gt;" style="text;html=1;align=center;verticalAlign=middle;whiteSpace=wrap;rounded=0;fontSize=7;" vertex="1" parent="1">
          <mxGeometry x="440" y="320" width="120" height="40" as="geometry" />
        </mxCell>
        <mxCell id="1-SLnetVIRhIFfSuhSnH-18" value="$$32.768 \space kHz$$" style="text;html=1;align=center;verticalAlign=middle;whiteSpace=wrap;rounded=0;fontColor=#00994D;" vertex="1" parent="1">
          <mxGeometry x="35" y="320" width="70" height="40" as="geometry" />
        </mxCell>
        <mxCell id="1-SLnetVIRhIFfSuhSnH-20" value="$$32.768 \space kHz$$" style="text;html=1;align=center;verticalAlign=middle;whiteSpace=wrap;rounded=0;fontColor=#FF3333;" vertex="1" parent="1">
          <mxGeometry x="320" y="320" width="80" height="40" as="geometry" />
        </mxCell>
        <mxCell id="1-SLnetVIRhIFfSuhSnH-22" value="$$3.072 \space MHz$$" style="text;html=1;align=center;verticalAlign=middle;whiteSpace=wrap;rounded=0;fontColor=#FF3333;" vertex="1" parent="1">
          <mxGeometry x="600" y="320" width="80" height="40" as="geometry" />
        </mxCell>
        <mxCell id="1-SLnetVIRhIFfSuhSnH-29" style="edgeStyle=orthogonalEdgeStyle;rounded=0;orthogonalLoop=1;jettySize=auto;html=1;exitX=0;exitY=0.5;exitDx=0;exitDy=0;entryX=1;entryY=0.5;entryDx=0;entryDy=0;" edge="1" parent="1" source="1-SLnetVIRhIFfSuhSnH-24" target="1-SLnetVIRhIFfSuhSnH-28">
          <mxGeometry relative="1" as="geometry" />
        </mxCell>
        <mxCell id="1-SLnetVIRhIFfSuhSnH-24" value="EM01GRPBCLK" style="text;html=1;align=center;verticalAlign=middle;whiteSpace=wrap;rounded=0;fontColor=#FF3333;" vertex="1" parent="1">
          <mxGeometry x="315" y="400" width="90" height="40" as="geometry" />
        </mxCell>
        <mxCell id="1-SLnetVIRhIFfSuhSnH-26" value="$$3.072 \space MHz$$" style="text;html=1;align=center;verticalAlign=middle;whiteSpace=wrap;rounded=0;fontColor=#FF3333;" vertex="1" parent="1">
          <mxGeometry x="320" y="440" width="80" height="40" as="geometry" />
        </mxCell>
        <mxCell id="1-SLnetVIRhIFfSuhSnH-31" style="edgeStyle=orthogonalEdgeStyle;rounded=0;orthogonalLoop=1;jettySize=auto;html=1;exitX=0;exitY=0.5;exitDx=0;exitDy=0;entryX=0;entryY=0.5;entryDx=0;entryDy=0;dashed=1;dashPattern=8 8;" edge="1" parent="1" source="1-SLnetVIRhIFfSuhSnH-28" target="1-SLnetVIRhIFfSuhSnH-30">
          <mxGeometry relative="1" as="geometry">
            <Array as="points">
              <mxPoint x="120" y="420" />
              <mxPoint x="120" y="540" />
            </Array>
          </mxGeometry>
        </mxCell>
        <mxCell id="1-SLnetVIRhIFfSuhSnH-28" value="PDM-Peripherie" style="rounded=0;whiteSpace=wrap;html=1;" vertex="1" parent="1">
          <mxGeometry x="160" y="400" width="120" height="40" as="geometry" />
        </mxCell>
        <mxCell id="1-SLnetVIRhIFfSuhSnH-32" style="edgeStyle=orthogonalEdgeStyle;rounded=0;orthogonalLoop=1;jettySize=auto;html=1;exitX=1;exitY=0.5;exitDx=0;exitDy=0;entryX=0;entryY=0.5;entryDx=0;entryDy=0;endArrow=none;endFill=0;dashed=1;dashPattern=8 8;" edge="1" parent="1" source="1-SLnetVIRhIFfSuhSnH-30" target="1-SLnetVIRhIFfSuhSnH-33">
          <mxGeometry relative="1" as="geometry">
            <mxPoint x="400" y="540.0689655172414" as="targetPoint" />
          </mxGeometry>
        </mxCell>
        <mxCell id="1-SLnetVIRhIFfSuhSnH-30" value="Prescaler" style="rounded=0;whiteSpace=wrap;html=1;dashed=1;dashPattern=8 8;" vertex="1" parent="1">
          <mxGeometry x="160" y="520" width="120" height="40" as="geometry" />
        </mxCell>
        <mxCell id="1-SLnetVIRhIFfSuhSnH-34" style="edgeStyle=orthogonalEdgeStyle;rounded=0;orthogonalLoop=1;jettySize=auto;html=1;exitX=1;exitY=0.5;exitDx=0;exitDy=0;dashed=1;dashPattern=8 8;entryX=0;entryY=0.5;entryDx=0;entryDy=0;" edge="1" parent="1" source="1-SLnetVIRhIFfSuhSnH-33" target="1-SLnetVIRhIFfSuhSnH-38">
          <mxGeometry relative="1" as="geometry">
            <mxPoint x="550" y="540" as="targetPoint" />
          </mxGeometry>
        </mxCell>
        <mxCell id="1-SLnetVIRhIFfSuhSnH-33" value="PDM_CLK" style="text;html=1;align=center;verticalAlign=middle;whiteSpace=wrap;rounded=0;fontColor=#FF3333;" vertex="1" parent="1">
          <mxGeometry x="400" y="520" width="80" height="40" as="geometry" />
        </mxCell>
        <mxCell id="1-SLnetVIRhIFfSuhSnH-35" value="$$3.072 \space MHz$$" style="text;html=1;align=center;verticalAlign=middle;whiteSpace=wrap;rounded=0;fontColor=#FF3333;" vertex="1" parent="1">
          <mxGeometry x="400" y="560" width="80" height="40" as="geometry" />
        </mxCell>
        <mxCell id="1-SLnetVIRhIFfSuhSnH-36" value="&lt;div style=&quot;font-size: 7px;&quot;&gt;PDM_XXXXX&lt;/div&gt;" style="text;html=1;align=center;verticalAlign=middle;whiteSpace=wrap;rounded=0;fontSize=7;" vertex="1" parent="1">
          <mxGeometry x="160" y="440" width="120" height="40" as="geometry" />
        </mxCell>
        <mxCell id="1-SLnetVIRhIFfSuhSnH-37" value="&lt;div style=&quot;font-size: 7px;&quot;&gt;PDM_CFG1&lt;/div&gt;" style="text;html=1;align=center;verticalAlign=middle;whiteSpace=wrap;rounded=0;fontSize=7;" vertex="1" parent="1">
          <mxGeometry x="160" y="560" width="120" height="40" as="geometry" />
        </mxCell>
        <mxCell id="1-SLnetVIRhIFfSuhSnH-38" value="MEMS-Mikrofon" style="rounded=0;whiteSpace=wrap;html=1;dashed=1;dashPattern=8 8;fillColor=#dae8fc;strokeColor=#6c8ebf;" vertex="1" parent="1">
          <mxGeometry x="580" y="520" width="120" height="40" as="geometry" />
        </mxCell>
        <mxCell id="1-SLnetVIRhIFfSuhSnH-40" value="Verfügbar in EM1/EM1/EM2/EM4" style="text;html=1;align=left;verticalAlign=middle;whiteSpace=wrap;rounded=0;fontColor=#00994D;" vertex="1" parent="1">
          <mxGeometry x="40" y="620" width="200" height="20" as="geometry" />
        </mxCell>
        <mxCell id="1-SLnetVIRhIFfSuhSnH-41" value="Verfügbar in EM0/EM1" style="text;html=1;align=left;verticalAlign=middle;whiteSpace=wrap;rounded=0;fontColor=#FF3333;" vertex="1" parent="1">
          <mxGeometry x="40" y="600" width="200" height="20" as="geometry" />
        </mxCell>
      </root>
    </mxGraphModel>
  </diagram>
</mxfile>
